<?xml version="1.0" encoding="UTF-8"?>
<!-- Generated by Pixelmator Pro 3.7.1 -->
<svg width="9504" height="4320" viewBox="0 0 9504 4320" xmlns="http://www.w3.org/2000/svg">
    <linearGradient id="linearGradient1" x1="-4755.05674" y1="2080.450144" x2="14252.94326" y2="2080.450144" gradientUnits="userSpaceOnUse" gradientTransform="matrix(-0 -1 1 -0 2668.493116 6829.393404)">
        <stop offset="0.451542" stop-color="#0a0a0a" stop-opacity="1"/>
        <stop offset="1" stop-color="#888888" stop-opacity="1"/>
    </linearGradient>
    <path id="Gradient-Fill" fill="url(#linearGradient1)" stroke="none" d="M 0 0 L 9504 0 L 9504 4320 L 0 4320 Z"/>
    <g id="Group">
        <g id="g1">
            <clipPath id="clipPath1">
                <path d="M 850.5 431.405914 L 8653.5 431.405914 L 8653.5 3942.594086 L 850.5 3942.594086 Z"/>
            </clipPath>
            <g id="g2" clip-path="url(#clipPath1)">
                <clipPath id="clipPath2">
                    <path d="M 850.5 431.405914 L 8653.5 431.405914 L 8653.5 3942.594086 L 850.5 3942.594086 Z"/>
                </clipPath>
                <path id="Path" fill="#20beff" stroke="none" clip-path="url(#clipPath2)" d="M 2855.25 2780.13623 C 2853.630127 2786.562012 2847.204102 2789.774902 2835.999023 2789.774902 L 2621.727051 2789.774902 C 2608.8479 2789.774902 2597.669922 2784.158936 2588.031006 2772.899902 L 2234.14209 2322.755859 L 2135.457031 2416.634766 L 2135.457031 2765.717773 C 2135.457031 2781.782959 2127.410889 2789.801758 2111.373047 2789.801758 L 1945.268921 2789.801758 C 1929.204102 2789.801758 1921.184937 2781.782959 1921.184937 2765.717773 L 1921.184937 1174.4729 C 1921.184937 1158.461914 1929.204102 1150.416016 1945.268921 1150.416016 L 2111.373047 1150.416016 C 2127.410889 1150.416016 2135.457031 1158.461914 2135.457031 1174.4729 L 2135.457031 2154.249023 L 2559.140869 1725.759033 C 2570.373047 1714.553955 2581.60498 1708.910889 2592.836914 1708.910889 L 2814.344971 1708.910889 C 2823.957031 1708.910889 2830.355957 1712.934082 2833.595947 1720.926025 C 2836.809082 1730.564941 2835.999023 1737.773926 2831.193115 1742.606934 L 2383.397949 2175.875977 L 2850.416992 2756.051758 C 2856.815918 2762.478027 2858.435791 2770.49707 2855.25 2780.13623"/>
                <clipPath id="clipPath3">
                    <path d="M 850.5 431.405914 L 8653.5 431.405914 L 8653.5 3942.594086 L 850.5 3942.594086 Z"/>
                </clipPath>
                <path id="path1" fill="#20beff" stroke="none" clip-path="url(#clipPath3)" d="M 3723.165039 2789.748047 L 3557.060791 2789.748047 C 3539.403076 2789.748047 3530.57373 2781.755859 3530.57373 2765.690918 L 3530.57373 2731.967773 C 3459.941895 2784.915039 3369.276123 2811.401855 3258.548828 2811.401855 C 3157.460938 2811.401855 3069.954102 2780.109131 2996.135986 2717.550049 C 2923.910889 2653.371094 2887.812012 2571.506836 2887.812012 2472.011963 C 2887.812012 2314.737061 2985.687012 2208.006104 3181.490967 2151.845947 C 3258.521973 2129.35498 3374.86499 2110.131104 3530.547119 2094.065918 C 3535.380127 2034.719971 3519.719971 1984.148926 3483.62085 1942.406982 C 3447.521973 1900.692139 3394.926025 1879.821045 3325.940918 1879.821045 C 3236.057861 1879.821045 3144.582031 1911.951172 3051.512939 1976.103027 C 3037.068115 1984.148926 3026.618896 1982.529053 3020.219971 1971.297119 L 2933.550049 1848.527832 C 2925.503906 1838.88916 2927.934082 1827.684082 2940.759033 1814.832031 C 3064.338135 1729.781982 3192.7229 1687.230225 3325.940918 1687.230225 C 3428.648926 1687.230225 3516.12915 1711.314209 3588.35376 1759.455078 C 3694.274902 1830.086914 3747.221924 1943.217041 3747.221924 2098.87207 L 3747.221924 2765.690918 C 3747.221924 2781.755859 3739.17627 2789.748047 3723.165039 2789.748047 M 3530.57373 2286.629883 C 3373.271973 2302.695068 3265.785156 2323.565918 3208.005127 2349.216064 C 3129.354004 2382.911865 3094.010986 2431.052979 3102.056885 2493.666016 C 3106.863037 2528.981934 3124.548096 2557.467041 3155.031006 2579.121094 C 3185.487061 2600.774902 3220.830078 2613.249023 3260.952148 2616.435059 C 3373.271973 2624.454102 3463.182129 2594.753906 3530.57373 2527.362061 L 3530.57373 2286.629883 Z"/>
                <clipPath id="clipPath4">
                    <path d="M 850.5 431.405914 L 8653.5 431.405914 L 8653.5 3942.594086 L 850.5 3942.594086 Z"/>
                </clipPath>
                <path id="path2" fill="#20beff" stroke="none" clip-path="url(#clipPath4)" d="M 4731.075195 3207.411133 C 4643.595215 3298.050049 4519.611328 3343.437012 4359.149902 3343.437012 C 4266.054199 3343.437012 4177.791016 3320.163086 4094.361084 3273.64209 C 4076.67627 3262.383057 4055.832031 3247.532959 4031.774902 3229.092041 C 4007.690918 3210.650879 3979.583984 3187.755127 3947.507813 3160.484863 C 3936.249023 3150.873047 3935.46582 3138.831055 3945.077881 3124.359131 L 4058.234863 3011.229004 C 4063.041016 3006.395996 4069.466797 3003.993164 4077.486084 3003.993164 C 4083.885254 3003.993164 4089.528076 3006.395996 4094.333984 3011.229004 C 4184.189941 3101.084961 4271.67041 3146.040039 4356.720215 3146.040039 C 4550.876953 3146.040039 4647.996094 3044.925049 4647.996094 2842.722168 L 4647.996094 2717.550049 C 4572.558105 2780.13623 4472.279785 2811.428955 4347.081055 2811.428955 C 4191.398926 2811.428955 4069.412842 2752.893066 3981.177002 2635.713135 C 3904.14624 2533.032227 3865.617188 2403.810059 3865.617188 2248.155029 C 3865.617188 2100.519043 3902.525879 1975.347168 3976.37085 1872.612061 C 4063.013916 1749.060059 4185.810059 1687.256836 4344.70459 1687.256836 C 4465.070801 1687.256836 4566.186035 1718.550049 4647.996094 1781.163086 L 4647.996094 1733.021973 C 4647.996094 1716.983887 4656.015137 1708.937988 4672.07959 1708.937988 L 4838.210938 1708.937988 C 4854.22168 1708.937988 4862.268066 1716.983887 4862.268066 1733.021973 L 4862.268066 2809.080078 C 4862.268066 2983.932129 4818.52832 3116.745117 4731.075195 3207.411133 M 4647.996094 2050.731201 C 4607.874023 1948.050049 4514.77832 1896.668945 4368.762207 1896.668945 C 4181.003906 1896.668945 4087.125 2013.848877 4087.125 2248.12793 C 4087.125 2378.105957 4118.417969 2472.849121 4181.003906 2532.195068 C 4227.524902 2578.77002 4287.708008 2602.01709 4361.553223 2602.01709 C 4512.375 2602.01709 4607.874023 2550.663086 4647.996094 2447.955078 L 4647.996094 2050.731201 Z"/>
                <clipPath id="clipPath5">
                    <path d="M 850.5 431.405914 L 8653.5 431.405914 L 8653.5 3942.594086 L 850.5 3942.594086 Z"/>
                </clipPath>
                <path id="path3" fill="#20beff" stroke="none" clip-path="url(#clipPath5)" d="M 5862.833984 3207.411133 C 5775.327148 3298.050049 5651.370117 3343.437012 5490.90918 3343.437012 C 5397.786133 3343.437012 5309.522949 3320.163086 5226.093262 3273.64209 C 5208.408203 3262.383057 5187.563965 3247.532959 5163.506836 3229.092041 C 5139.422852 3210.650879 5111.343262 3187.755127 5079.239746 3160.484863 C 5068.007813 3150.873047 5067.197754 3138.831055 5076.836914 3124.359131 L 5189.966797 3011.229004 C 5194.772949 3006.395996 5201.19873 3003.993164 5209.218262 3003.993164 C 5215.617188 3003.993164 5221.260254 3006.395996 5226.065918 3011.229004 C 5315.921875 3101.084961 5403.375 3146.040039 5488.452148 3146.040039 C 5682.608887 3146.040039 5779.754883 3044.925049 5779.754883 2842.722168 L 5779.754883 2717.550049 C 5704.290039 2780.13623 5604.012207 2811.428955 5478.839844 2811.428955 C 5323.158203 2811.428955 5201.171875 2752.893066 5112.936035 2635.713135 C 5035.878418 2533.032227 4997.375977 2403.810059 4997.375977 2248.155029 C 4997.375977 2100.519043 5034.285156 1975.347168 5108.103027 1872.612061 C 5194.772949 1749.060059 5317.541992 1687.256836 5476.437012 1687.256836 C 5596.803223 1687.256836 5697.891113 1718.550049 5779.754883 1781.163086 L 5779.754883 1733.021973 C 5779.754883 1716.983887 5787.746582 1708.937988 5803.838867 1708.937988 L 5969.942871 1708.937988 C 5985.954102 1708.937988 5994 1716.983887 5994 1733.021973 L 5994 2809.080078 C 5994 2983.932129 5950.260254 3116.745117 5862.833984 3207.411133 M 5779.781738 2050.731201 C 5739.632813 1948.050049 5646.537109 1896.668945 5500.520996 1896.668945 C 5312.736328 1896.668945 5218.856934 2013.848877 5218.856934 2248.12793 C 5218.856934 2378.105957 5250.177246 2472.849121 5312.736328 2532.195068 C 5359.28418 2578.77002 5419.466797 2602.01709 5493.285156 2602.01709 C 5644.106934 2602.01709 5739.632813 2550.663086 5779.754883 2447.955078 L 5779.754883 2050.731201 Z"/>
                <clipPath id="clipPath6">
                    <path d="M 850.5 431.405914 L 8653.5 431.405914 L 8653.5 3942.594086 L 850.5 3942.594086 Z"/>
                </clipPath>
                <path id="path4" fill="#20beff" stroke="none" clip-path="url(#clipPath6)" d="M 6363.387207 2789.748047 L 6197.255859 2789.748047 C 6181.218262 2789.748047 6173.19873 2781.755859 6173.19873 2765.690918 L 6173.19873 1174.4729 C 6173.19873 1158.461914 6181.218262 1150.416016 6197.255859 1150.416016 L 6363.387207 1150.416016 C 6379.397949 1150.416016 6387.444336 1158.435059 6387.444336 1174.4729 L 6387.444336 2765.717773 C 6387.444336 2781.755859 6379.397949 2789.748047 6363.387207 2789.748047"/>
                <clipPath id="clipPath7">
                    <path d="M 850.5 431.405914 L 8653.5 431.405914 L 8653.5 3942.594086 L 850.5 3942.594086 Z"/>
                </clipPath>
                <path id="path5" fill="#20beff" stroke="none" clip-path="url(#clipPath7)" d="M 7574.121094 2301.074951 C 7574.121094 2317.140137 7566.047852 2325.158936 7550.037109 2325.158936 L 6767.658203 2325.158936 C 6777.27002 2403.810059 6810.993164 2469.582031 6868.772949 2522.556152 C 6934.571777 2578.77002 7017.219238 2606.823242 7116.741211 2606.823242 C 7204.977539 2606.823242 7284.383789 2581.956055 7355.042969 2532.195068 C 7369.515137 2522.556152 7381.530273 2522.556152 7391.169434 2532.195068 L 7504.299316 2647.754883 C 7517.150879 2660.634033 7517.150879 2671.812012 7504.299316 2681.451172 C 7388.765625 2768.121094 7254.710938 2811.428955 7102.295898 2811.428955 C 6938.594727 2811.428955 6802.164063 2756.88916 6693.029785 2647.754883 C 6587.13623 2540.240967 6534.162109 2403.026855 6534.162109 2236.113037 C 6534.162109 2078.838135 6586.298828 1945.646973 6690.626953 1836.48584 C 6786.936035 1736.990967 6912.10791 1687.256836 7066.169922 1687.256836 C 7212.186523 1687.256836 7334.955078 1739.420898 7434.503906 1843.722168 C 7537.185059 1951.262939 7584.542969 2086.073975 7576.523926 2248.155029 L 7574.121094 2301.074951 Z M 7258.760742 1947.213135 C 7204.193848 1897.479004 7138.39502 1872.585205 7061.364258 1872.585205 C 6989.138672 1872.585205 6925.71582 1896.668945 6871.203125 1944.782959 C 6816.63623 1992.923828 6782.129883 2055.536865 6767.685059 2132.568115 L 7347.833984 2132.568115 C 7346.213867 2058.7771 7316.541016 1996.947021 7258.760742 1947.213135"/>
                <clipPath id="clipPath8">
                    <path d="M 850.5 431.405914 L 8653.5 431.405914 L 8653.5 3942.594086 L 850.5 3942.594086 Z"/>
                </clipPath>
                <path id="path6" fill="#20beff" stroke="none" clip-path="url(#clipPath8)" d="M 7521.443848 1699.244873 L 7590.48291 1699.244873 L 7590.48291 1712.150879 L 7563.375 1712.150879 L 7563.375 1784.510986 L 7548.443848 1784.510986 L 7548.443848 1712.150879 L 7521.443848 1712.150879 Z"/>
                <clipPath id="clipPath9">
                    <path d="M 850.5 431.405914 L 8653.5 431.405914 L 8653.5 3942.594086 L 850.5 3942.594086 Z"/>
                </clipPath>
                <path id="path7" fill="#20beff" stroke="none" clip-path="url(#clipPath9)" d="M 7600.17627 1699.244873 L 7621.208984 1699.244873 L 7644.753418 1766.015869 L 7644.969238 1766.015869 L 7667.919434 1699.244873 L 7688.681641 1699.244873 L 7688.681641 1784.510986 L 7674.47998 1784.510986 L 7674.47998 1718.711914 L 7674.236816 1718.711914 L 7650.585449 1784.510986 L 7638.299805 1784.510986 L 7614.621094 1718.711914 L 7614.405273 1718.711914 L 7614.405273 1784.510986 L 7600.17627 1784.510986 Z"/>
            </g>
        </g>
    </g>
</svg>
